<?xml version="1.0" encoding="UTF-8" standalone="no"?>
<svg
   id="SvgjsSvg1001"
   width="288"
   height="288"
   version="1.1"
   sodipodi:docname="features.svg"
   inkscape:version="1.2.2 (732a01da63, 2022-12-09)"
   xmlns:inkscape="http://www.inkscape.org/namespaces/inkscape"
   xmlns:sodipodi="http://sodipodi.sourceforge.net/DTD/sodipodi-0.dtd"
   xmlns="http://www.w3.org/2000/svg"
   xmlns:svg="http://www.w3.org/2000/svg"
   xmlns:svgjs="http://svgjs.com/svgjs">
  <sodipodi:namedview
     id="namedview53"
     pagecolor="#ffffff"
     bordercolor="#000000"
     borderopacity="0.25"
     inkscape:showpageshadow="2"
     inkscape:pageopacity="0.0"
     inkscape:pagecheckerboard="0"
     inkscape:deskcolor="#d1d1d1"
     showgrid="false"
     inkscape:zoom="4.0486111"
     inkscape:cx="116.45969"
     inkscape:cy="144"
     inkscape:window-width="2560"
     inkscape:window-height="1369"
     inkscape:window-x="1912"
     inkscape:window-y="-8"
     inkscape:window-maximized="1"
     inkscape:current-layer="SvgjsSvg1001" />
  <defs
     id="SvgjsDefs1002" />
  <g
     id="SvgjsG1008">
    <svg
       enable-background="new 0 0 100 100"
       viewBox="0 0 100 125"
       width="288"
       height="288"
       version="1.1"
       id="svg49">
      <switch
         id="switch43">
        <g
           fill="#e6d8d8"
           class="color000 svgShape"
           id="g41">
          <path
             d="M5273.1,2400.1v-2c0-2.8-5-4-9.7-4s-9.7,1.3-9.7,4v2c0,1.8,0.7,3.6,2,4.9l5,4.9c0.3,0.3,0.4,0.6,0.4,1v6.4     c0,0.4,0.2,0.7,0.6,0.8l2.9,0.9c0.5,0.1,1-0.2,1-0.8v-7.2c0-0.4,0.2-0.7,0.4-1l5.1-5C5272.4,2403.7,5273.1,2401.9,5273.1,2400.1z      M5263.4,2400c-4.8,0-7.4-1.3-7.5-1.8v0c0.1-0.5,2.7-1.8,7.5-1.8c4.8,0,7.3,1.3,7.5,1.8C5270.7,2398.7,5268.2,2400,5263.4,2400z"
             fill="#e6d8d8"
             class="color000 svgShape"
             id="path33" />
          <path
             d="M5268.4 2410.3c-.6 0-1 .4-1 1 0 .6.4 1 1 1h4.3c.6 0 1-.4 1-1 0-.6-.4-1-1-1H5268.4zM5272.7 2413.7h-4.3c-.6 0-1 .4-1 1 0 .6.4 1 1 1h4.3c.6 0 1-.4 1-1C5273.7 2414.1 5273.3 2413.7 5272.7 2413.7zM5272.7 2417h-4.3c-.6 0-1 .4-1 1 0 .6.4 1 1 1h4.3c.6 0 1-.4 1-1C5273.7 2417.5 5273.3 2417 5272.7 2417z"
             fill="#e6d8d8"
             class="color000 svgShape"
             id="path35" />
          <g
             fill="#e6d8d8"
             class="color000 svgShape"
             id="g39">
            <path
               d="M81.7 72.2C79.5 73 75.9 74 72 74.8c-1.4 2.3-4 4.2-8 5-.9.2-2 .3-3.1.3-2.8.1-6.1-.2-9.7-.5-.2 0-.5 0-.7-.1-.9-.1-1.7-.8-1.7-1.6-.1-1.1.8-2 1.9-1.9.3 0 .6 0 .9.1 4.7.4 9.1.8 11.9.3 5.2-1 6.6-4.1 6.3-6.8-.3-2.2-1.9-4.2-4.4-4.1-3.7.3-7.9 0-12.1-.3-4.8-.3-9.7-.5-13.1-.1-3.9.4-11.7 3.3-18.7 8-3.4 2.3-7.2 5-9.5 6.7-1.2.9-1.4 2.5-.5 3.6l10.1 13.1c.9 1.1 2.5 1.3 3.6.5l3.7-2.9c.9-.7 2-.9 3.1-.6 6.8 2.2 14 3.6 18.7 3.8 10.3.5 30.2-11.7 35.9-15.6C92.1 77.8 88 69.9 81.7 72.2zM30 12.2c.3.2.4.6.3 1l-.9 4c-.2.9.7 1.5 1.5 1.1l3.5-2.1c.3-.2.7-.2 1 0l3.5 2.1c.8.5 1.7-.2 1.5-1.1l-.9-4c-.1-.4 0-.7.3-1l3.1-2.7c.7-.6.3-1.7-.6-1.7l-4.1-.3c-.4 0-.7-.3-.8-.6l-1.6-3.8c-.3-.8-1.5-.8-1.8 0l-1.6 3.8c-.1.3-.5.6-.8.6l-4.1.3c-.9.1-1.2 1.2-.6 1.7L30 12.2zM50.6 15.3h30.5c1.9 0 3.4-1.5 3.4-3.4s-1.5-3.4-3.4-3.4H50.6c-1.9 0-3.4 1.5-3.4 3.4S48.7 15.3 50.6 15.3zM30 31.4c.3.2.4.6.3 1l-.9 4c-.2.9.7 1.5 1.5 1.1l3.5-2.1c.3-.2.7-.2 1 0l3.5 2.1c.8.5 1.7-.2 1.5-1.1l-.9-4c-.1-.4 0-.7.3-1l3.1-2.7c.7-.6.3-1.7-.6-1.7l-4.1-.3c-.4 0-.7-.3-.8-.6l-1.6-3.8c-.3-.8-1.5-.8-1.8 0l-1.6 3.8c-.1.3-.5.6-.8.6L27.5 27c-.9.1-1.2 1.2-.6 1.7L30 31.4zM50.6 34.5h30.5c1.9 0 3.4-1.5 3.4-3.4 0-1.9-1.5-3.4-3.4-3.4H50.6c-1.9 0-3.4 1.5-3.4 3.4C47.2 33 48.7 34.5 50.6 34.5zM30 50.6c.3.2.4.6.3 1l-.9 4c-.2.9.7 1.5 1.5 1.1l3.5-2.1c.3-.2.7-.2 1 0l3.5 2.1c.8.5 1.7-.2 1.5-1.1l-.9-4c-.1-.4 0-.7.3-1l3.1-2.7c.7-.6.3-1.7-.6-1.7l-4.1-.3c-.4 0-.7-.3-.8-.6l-1.6-3.8c-.3-.8-1.5-.8-1.8 0l-1.6 3.8c-.1.3-.5.6-.8.6l-4.1.3c-.9.1-1.2 1.2-.6 1.7L30 50.6zM50.6 53.7h30.5c1.9 0 3.4-1.5 3.4-3.4S82.9 47 81.1 47H50.6c-1.9 0-3.4 1.5-3.4 3.4S48.7 53.7 50.6 53.7z"
               fill="#e6d8d8"
               class="color000 svgShape"
               id="path37" />
          </g>
        </g>
      </switch>
      <text
         y="115"
         font-family="'Helvetica Neue', Helvetica, Arial-Unicode, Arial, Sans-serif"
         font-size="5px"
         font-weight="bold"
         svgjs:data="{&quot;leading&quot;:&quot;1.3&quot;}"
         id="text45"
         style="display:none">Created by Adrien Coquet</text>
      <text
         y="120"
         font-family="'Helvetica Neue', Helvetica, Arial-Unicode, Arial, Sans-serif"
         font-size="5px"
         font-weight="bold"
         svgjs:data="{&quot;leading&quot;:&quot;1.3&quot;}"
         id="text47"
         style="display:none">from the Noun Project</text>
    </svg>
  </g>
</svg>
